<?xml version="1.0" encoding="utf-8"?>
<svg viewBox="76.873 84.603 327.274 327.274" width="327.274" height="327.274" xmlns="http://www.w3.org/2000/svg">
  <ellipse style="fill: rgb(219, 208, 181);" cx="240.51" cy="248.24" rx="163.637" ry="163.637"/>
  <path d="M 347.541 229.886 C 348.637 224.953 349.176 219.912 349.149 214.859 C 349.151 212.63 349.042 210.402 348.822 208.184 C 348.16 200.917 346.039 193.859 342.586 187.431 C 341.973 186.302 341.322 185.194 340.636 184.109 C 336.335 177.363 330.75 171.529 324.199 166.938 C 320.316 164.191 316.19 161.805 311.872 159.812 C 306.723 157.443 301.38 155.519 295.903 154.061 C 290.963 152.733 285.945 151.715 280.878 151.013 C 273.877 150.053 266.816 149.582 259.749 149.603 C 259.376 149.603 259.002 149.604 258.628 149.605 C 247.378 149.638 236.153 150.653 225.079 152.638 C 222.922 153.029 220.773 153.455 218.63 153.916 C 210.169 155.72 201.853 158.148 193.751 161.182 C 184.011 164.855 175.137 169.271 167.129 174.429 C 164.678 176.007 162.285 177.673 159.955 179.425 C 155.117 183.041 150.618 187.088 146.512 191.518 C 145.625 192.483 144.76 193.468 143.918 194.473 C 139.545 199.643 135.918 205.401 133.141 211.577 C 129.996 218.564 128.371 226.139 128.373 233.802 C 128.369 235.936 128.493 238.069 128.744 240.189 C 129.233 244.505 130.382 248.719 132.149 252.686 C 132.228 252.86 132.307 253.033 132.388 253.206 C 134.758 258.387 138.128 263.049 142.303 266.925 C 146.608 270.879 151.661 273.931 157.163 275.902 C 162.857 277.973 168.871 279.021 174.929 278.998 C 175.141 278.998 175.352 278.997 175.563 278.996 C 178.715 278.974 181.703 278.789 184.528 278.44 C 187.393 278.098 190.227 277.54 193.008 276.769 C 193.737 276.564 194.464 276.351 195.189 276.13 C 197.322 275.481 199.313 274.799 201.161 274.084 C 202.958 273.394 204.721 272.616 206.443 271.753 C 206.609 271.669 206.774 271.585 206.94 271.5 C 209.247 270.316 211.197 269.192 212.79 268.127 C 213.503 267.655 214.194 267.15 214.862 266.616 C 214.968 266.53 215.075 266.443 215.181 266.357 C 216.688 265.138 217.6 264.389 217.918 264.11 C 217.953 264.079 217.988 264.047 218.022 264.014 C 219.012 263.189 219.508 262.075 219.508 260.672 C 219.511 260.009 219.363 259.354 219.074 258.757 C 218.822 258.249 218.487 257.787 218.082 257.39 C 217.132 256.442 216.038 255.968 214.801 255.968 C 214.224 255.963 213.652 256.072 213.117 256.287 C 212.541 256.528 212.019 256.883 211.583 257.329 C 211.571 257.341 211.56 257.352 211.547 257.362 C 211.343 257.548 210.641 258.108 209.443 259.041 C 209.248 259.193 209.052 259.344 208.857 259.495 C 208.78 259.555 208.703 259.614 208.626 259.673 C 206.988 260.902 204.692 262.225 201.739 263.644 C 201.146 263.928 200.547 264.199 199.943 264.458 C 197.21 265.631 194.011 266.721 190.348 267.729 C 190.272 267.749 190.197 267.77 190.122 267.79 C 185.677 268.988 180.613 269.588 174.929 269.588 C 170.061 269.588 165.397 268.845 160.939 267.359 C 156.582 265.931 152.56 263.635 149.114 260.611 C 148.15 259.763 147.239 258.857 146.386 257.897 C 144.142 255.353 142.287 252.491 140.88 249.405 C 138.816 244.947 137.784 239.746 137.784 233.802 C 137.789 227.009 139.313 220.304 142.242 214.176 C 143.191 212.161 144.25 210.2 145.414 208.301 C 148.065 204.012 151.173 200.024 154.686 196.408 C 156.904 194.109 159.248 191.934 161.705 189.893 C 165.553 186.706 169.621 183.794 173.877 181.177 C 176.003 179.863 178.169 178.615 180.371 177.434 C 186.279 174.284 192.405 171.563 198.703 169.291 C 200.995 168.458 203.306 167.679 205.634 166.953 C 212.921 164.699 220.347 162.916 227.863 161.615 C 238.475 159.777 249.226 158.865 259.995 158.889 C 264.347 158.884 268.696 159.066 273.032 159.435 C 279.514 159.971 285.941 161.031 292.252 162.604 C 296.073 163.562 299.829 164.761 303.498 166.195 C 308.425 168.105 313.124 170.556 317.511 173.501 C 318.168 173.946 318.816 174.405 319.454 174.875 C 325.393 179.184 330.346 184.71 333.979 191.085 C 335.764 194.246 337.149 197.616 338.103 201.119 C 339.301 205.6 339.892 210.221 339.86 214.859 C 339.866 217.568 339.693 220.274 339.34 222.961 C 338.676 228.237 337.137 233.365 334.786 238.135 C 331.401 244.904 326.654 250.621 320.544 255.285 C 317.603 257.52 314.453 259.465 311.139 261.095 C 307.087 263.08 302.857 264.68 298.505 265.873 C 294.561 266.964 290.549 267.794 286.495 268.358 C 281.038 269.111 275.534 269.481 270.025 269.464 C 270.004 269.463 269.984 269.463 269.964 269.464 C 268.73 269.452 267.546 269.944 266.682 270.825 C 266.668 270.84 266.654 270.854 266.639 270.868 C 265.786 271.704 265.31 272.851 265.321 274.046 C 265.319 274.44 265.356 274.833 265.432 275.22 C 265.599 276.157 266.111 276.997 266.868 277.573 C 267.344 277.937 267.876 278.222 268.442 278.418 C 269.112 278.644 269.815 278.756 270.522 278.75 C 282.16 278.75 292.808 277.285 302.466 274.355 C 305.41 273.466 308.304 272.422 311.136 271.226 C 316.946 268.803 322.402 265.607 327.356 261.724 C 334.188 256.361 339.695 249.497 343.451 241.665 C 345.254 237.906 346.626 233.954 347.541 229.886 Z M 257.023 252.004 L 257.023 267.605 C 257.042 275.019 256.53 282.425 255.492 289.766 C 255.155 292.109 254.757 294.442 254.3 296.765 C 253.348 301.705 251.923 306.542 250.045 311.209 C 248.671 314.6 247.009 317.866 245.077 320.972 C 240.742 327.907 234.943 333.417 227.678 337.504 C 223.861 339.611 219.757 341.151 215.496 342.076 C 210.908 343.114 205.847 343.633 200.314 343.633 C 195.36 343.633 190.511 343.034 185.765 341.837 C 181.018 340.64 176.54 338.907 172.33 336.636 C 168.109 334.358 164.198 331.55 160.691 328.278 C 157.152 324.99 154.071 321.242 151.528 317.135 C 151.386 316.851 151.244 316.522 151.102 316.146 C 151.079 316.084 151.056 316.021 151.034 315.959 C 150.949 315.729 150.883 315.492 150.839 315.251 C 150.803 315.055 150.786 314.857 150.785 314.658 C 150.787 313.679 151.113 312.729 151.711 311.955 C 151.828 311.797 151.954 311.646 152.086 311.501 C 152.858 310.649 153.938 310.142 155.086 310.091 C 155.22 310.082 155.355 310.078 155.489 310.078 C 156.304 310.074 157.101 310.31 157.782 310.758 C 158.475 311.204 159.083 311.769 159.577 312.429 C 164.86 319.776 170.845 325.287 177.531 328.96 C 182.891 331.872 188.789 333.657 194.864 334.207 C 196.675 334.385 198.494 334.473 200.314 334.471 C 207.811 334.471 214.246 333.406 219.617 331.278 C 221.181 330.662 222.697 329.929 224.151 329.084 C 230.222 325.572 235.228 320.479 238.636 314.348 C 240.846 310.377 242.582 306.16 243.809 301.783 C 244.674 298.732 245.346 295.63 245.82 292.494 C 246.72 286.544 247.297 280.55 247.549 274.538 C 247.675 271.651 247.738 268.762 247.737 265.873 L 247.737 250.148 C 247.743 245.16 247.933 240.175 248.307 235.201 C 248.361 234.466 248.419 233.732 248.48 232.998 C 248.972 227.111 250.114 221.298 251.886 215.662 C 253.681 209.965 256.264 204.546 259.562 199.565 C 262.906 194.488 267.425 190.01 273.121 186.132 C 273.254 186.065 273.389 186.003 273.527 185.945 C 273.681 185.88 273.846 185.816 274.024 185.752 C 274.135 185.712 274.246 185.673 274.358 185.635 C 274.681 185.529 274.969 185.457 275.221 185.42 C 275.346 185.4 275.472 185.39 275.599 185.389 C 276.819 185.382 277.995 185.847 278.88 186.688 C 279.732 187.46 280.24 188.541 280.29 189.69 C 280.299 189.824 280.303 189.959 280.303 190.093 C 280.312 190.889 280.075 191.668 279.623 192.322 C 279.255 192.854 278.834 193.348 278.368 193.796 C 278.231 193.927 278.092 194.054 277.949 194.179 C 275.599 196.012 273.398 198.03 271.369 200.214 C 269.714 201.997 268.208 203.913 266.868 205.942 C 264.113 210.13 261.985 214.698 260.553 219.502 C 259.354 223.549 258.504 227.692 258.012 231.884 C 257.892 232.893 257.789 233.905 257.705 234.917 C 257.358 239.135 257.145 243.363 257.066 247.594 C 257.038 249.064 257.023 250.534 257.023 252.004 Z" vector-effect="non-scaling-stroke" style="fill: rgb(255, 255, 255);"/>
</svg>